<svg width="20" height="22" viewBox="0 0 20 22" fill="none" xmlns="http://www.w3.org/2000/svg">
<path fill-rule="evenodd" clip-rule="evenodd" d="M12.1655 2.11638C11.5256 1.49 10.7683 1.18658 10.2557 1.04194C9.62688 0.836453 9.06897 1.02631 8.68782 1.27728C8.31813 1.5207 8.0534 1.85371 7.89397 2.10702C7.72945 2.36841 7.67665 2.64474 7.67384 2.87367L7.63807 5.78386L4.6713 9.53347C4.32215 9.97474 4.08818 10.4919 3.98547 11.0387L3.97035 11.1192L3.96935 11.201L3.92618 14.7135L3.92611 14.7135V14.7251L3.92611 18.7558C3.92611 19.959 4.89364 20.9385 6.09673 20.9533L13.5299 21.0447C16.6463 21.083 18.1528 19.2146 18.52 18.0197C19.1978 16.1943 19.6708 13.7425 19.9627 11.7775C20.2665 9.73307 18.6575 8.00243 16.6617 7.9779L13.1993 7.93534C13.1947 7.93012 13.1899 7.92422 13.1849 7.91763C13.1739 7.90311 13.1639 7.88733 13.1555 7.87136C13.1471 7.85535 13.1416 7.84147 13.1383 7.83105L13.1376 7.8287C13.2319 7.13978 13.3021 6.21549 13.3159 5.09315C13.3324 3.75226 12.8432 2.77974 12.1655 2.11638ZM9.5203 5.91402L9.55593 3.01452C9.57137 2.9949 9.58777 2.97542 9.60491 2.9566C9.65105 2.90592 9.69243 2.87116 9.72375 2.85053L9.72524 2.84955L9.7283 2.8504C10.0689 2.94453 10.5077 3.1296 10.8478 3.46251C11.1609 3.76898 11.4425 4.24806 11.4324 5.07C11.4192 6.14691 11.3511 7.00067 11.2678 7.5985C11.1894 8.16133 11.4087 8.69227 11.6831 9.05466C11.9534 9.41168 12.4372 9.8098 13.0837 9.81775L16.6385 9.86144C17.5647 9.87282 18.2252 10.6547 18.0995 11.5007C17.8101 13.4486 17.356 15.7546 16.7446 17.3897L16.7323 17.4226L16.7224 17.4563C16.5991 17.88 15.8115 19.1889 13.5531 19.1611L6.11988 19.0698C5.94802 19.0677 5.80979 18.9277 5.80979 18.7558V14.7309L5.85177 11.3157C5.90425 11.0933 6.00498 10.8837 6.14852 10.7023L9.18169 6.86873C9.39696 6.59666 9.51603 6.26093 9.5203 5.91402ZM1.12763 10.6227C0.504856 10.6227 0 11.1275 0 11.7503V18.8101C0 19.4329 0.504856 19.9378 1.12763 19.9378C1.7504 19.9378 2.25526 19.4329 2.25526 18.8101V11.7503C2.25526 11.1275 1.7504 10.6227 1.12763 10.6227Z" fill="#200E32" fill-opacity="0.26"/>
</svg>
